<?xml version="1.0" encoding="utf-8"?>
<!-- Generator: Adobe Illustrator 17.0.0, SVG Export Plug-In . SVG Version: 6.00 Build 0)  -->
<!DOCTYPE svg PUBLIC "-//W3C//DTD SVG 1.1//EN" "http://www.w3.org/Graphics/SVG/1.1/DTD/svg11.dtd">
<svg version="1.1" id="Layer_1" xmlns="http://www.w3.org/2000/svg" xmlns:xlink="http://www.w3.org/1999/xlink" x="0px" y="0px"
	 width="350px" height="90px" viewBox="0 0 350 90" enable-background="new 0 0 350 90" xml:space="preserve">
<linearGradient id="SVGID_1_" gradientUnits="userSpaceOnUse" x1="175" y1="90" x2="175" y2="-7.856215e-09">
	<stop  offset="0" style="stop-color:#FFFFFF"/>
	<stop  offset="1" style="stop-color:#5593D7"/>
</linearGradient>
<rect opacity="0.3" fill="url(#SVGID_1_)" width="350" height="90"/>
<g>
	<g>
		<path fill="#5593D7" d="M124.229,70.798c-3.625-1.41-5.196-2.377-5.196-4.472c0-1.571,1.369-3.263,4.512-3.263
			c2.538,0,4.431,0.765,5.398,1.289l1.208-3.988c-1.41-0.725-3.585-1.37-6.526-1.37c-5.882,0-9.588,3.384-9.588,7.815
			c0,3.907,2.86,6.284,7.332,7.896c3.464,1.249,4.834,2.457,4.834,4.512c0,2.216-1.773,3.706-4.956,3.706
			c-2.538,0-4.955-0.806-6.566-1.732l-1.088,4.109c1.491,0.886,4.472,1.692,7.332,1.692c7.01,0,10.313-3.787,10.313-8.138
			C131.239,74.947,128.943,72.57,124.229,70.798z"/>
		<path fill="#5593D7" d="M150.879,66.97h-4.955v11.844c0,0.564-0.121,1.088-0.282,1.531c-0.524,1.249-1.813,2.659-3.787,2.659
			c-2.619,0-3.666-2.095-3.666-5.358V66.97h-4.955v11.521c0,6.405,3.263,8.54,6.849,8.54c3.505,0,5.438-2.014,6.284-3.424h0.08
			l0.242,2.981h4.351c-0.08-1.611-0.161-3.545-0.161-5.882V66.97z"/>
		<path fill="#5593D7" d="M158.209,70.717h-0.161l-0.161-3.746h-4.311c0.121,1.773,0.162,3.666,0.162,6.325v13.294h4.955V76.437
			c0-0.564,0.08-1.088,0.161-1.531c0.443-2.216,2.055-3.746,4.431-3.746c0.604,0,1.047,0.081,1.45,0.161v-4.673
			c-0.403-0.081-0.685-0.121-1.168-0.121C161.472,66.527,159.176,67.937,158.209,70.717z"/>
		<path fill="#5593D7" d="M174.5,66.527c-6.285,0-9.588,5.116-9.588,10.555c0,6.002,3.747,9.91,10.111,9.91
			c2.82,0,5.156-0.524,6.849-1.209l-0.725-3.424c-1.491,0.564-3.142,0.886-5.438,0.886c-3.142,0-5.922-1.531-6.043-5.076h13.132
			c0.081-0.443,0.161-1.168,0.161-2.095C182.96,71.764,180.866,66.527,174.5,66.527z M169.667,74.705
			c0.201-2.014,1.49-4.794,4.552-4.794c3.303,0,4.109,2.981,4.069,4.794H169.667z"/>
		<polygon fill="#5593D7" points="185.527,86.589 190.483,86.589 190.483,75.068 200.473,75.068 200.473,70.999 190.483,70.999 
			190.483,63.506 201.198,63.506 201.198,59.437 185.527,59.437 		"/>
		<rect x="203.335" y="66.97" fill="#5593D7" width="4.995" height="19.619"/>
		<path fill="#5593D7" d="M205.832,58.793c-1.652,0-2.78,1.168-2.78,2.699c0,1.49,1.088,2.659,2.739,2.659
			c1.732,0,2.82-1.168,2.82-2.659C208.572,59.961,207.524,58.793,205.832,58.793z"/>
		<rect x="211.112" y="57.987" fill="#5593D7" width="4.995" height="28.602"/>
		<path fill="#5593D7" d="M236.406,76.075c0-4.31-2.094-9.547-8.46-9.547c-6.284,0-9.588,5.116-9.588,10.555
			c0,6.002,3.747,9.91,10.111,9.91c2.82,0,5.156-0.524,6.849-1.209l-0.725-3.424c-1.491,0.564-3.142,0.886-5.438,0.886
			c-3.142,0-5.922-1.531-6.043-5.076h13.132C236.325,77.726,236.406,77.001,236.406,76.075z M223.112,74.705
			c0.201-2.014,1.49-4.794,4.552-4.794c3.303,0,4.109,2.981,4.069,4.794H223.112z"/>
	</g>
	<path fill="#999999" d="M173.151,37.654l-1.071,1.682c4.819,0.957,8.464,5.217,8.464,10.313c0,5.798-4.717,10.515-10.515,10.515
		h-24.783c-5.798,0-10.515-4.717-10.515-10.515s4.717-10.515,10.515-10.515h1.876v-1.876c0-5.798,4.717-10.515,10.515-10.515
		c3.817,0,7.165,2.045,9.007,5.096l1.271-1.504c-2.226-3.299-5.999-5.468-10.278-5.468c-6.844,0-12.391,5.548-12.391,12.391
		c-6.844,0-12.391,5.548-12.391,12.391s5.548,12.391,12.391,12.391h24.783c6.844,0,12.391-5.548,12.391-12.391
		C182.42,43.883,178.483,39.038,173.151,37.654z"/>
	<path fill="#5593D7" d="M176.409,25.958c-0.415-0.351-1.036-0.299-1.387,0.117l-19.615,23.217l-5.305-5.691
		c-0.495-0.531-1.302-0.694-1.979-0.345c-0.818,0.421-1.14,1.424-0.719,2.242l5.452,10.602c0.236,0.455,0.597,0.868,1.061,1.163
		c1.403,0.893,3.264,0.48,4.158-0.923l0.116-0.183l18.414-28.918C176.865,26.83,176.79,26.28,176.409,25.958z"/>
</g>
</svg>
